<mxfile host="app.diagrams.net" agent="Mozilla/5.0 (Windows NT 10.0; Win64; x64; rv:138.0) Gecko/20100101 Firefox/138.0" version="26.2.14">
  <diagram name="Page-1" id="ESJHARLlS7sZuxrKBIV6">
    <mxGraphModel dx="2066" dy="1119" grid="1" gridSize="10" guides="1" tooltips="1" connect="1" arrows="1" fold="1" page="1" pageScale="1" pageWidth="850" pageHeight="1100" math="0" shadow="0">
      <root>
        <mxCell id="0" />
        <mxCell id="1" parent="0" />
        <mxCell id="WMAk-sGtxnksrHjmWfMA-4" value="" style="edgeStyle=orthogonalEdgeStyle;rounded=0;orthogonalLoop=1;jettySize=auto;html=1;entryX=0;entryY=0.5;entryDx=0;entryDy=0;" edge="1" parent="1" source="WMAk-sGtxnksrHjmWfMA-1" target="WMAk-sGtxnksrHjmWfMA-12">
          <mxGeometry relative="1" as="geometry" />
        </mxCell>
        <mxCell id="WMAk-sGtxnksrHjmWfMA-1" value="Joc iniciat" style="rounded=1;whiteSpace=wrap;html=1;arcSize=50;" vertex="1" parent="1">
          <mxGeometry x="170" y="95" width="125" height="50" as="geometry" />
        </mxCell>
        <mxCell id="WMAk-sGtxnksrHjmWfMA-8" value="" style="edgeStyle=orthogonalEdgeStyle;rounded=0;orthogonalLoop=1;jettySize=auto;html=1;exitX=0.5;exitY=1;exitDx=0;exitDy=0;entryX=0.5;entryY=0;entryDx=0;entryDy=0;" edge="1" parent="1" source="WMAk-sGtxnksrHjmWfMA-11" target="WMAk-sGtxnksrHjmWfMA-16">
          <mxGeometry relative="1" as="geometry" />
        </mxCell>
        <mxCell id="WMAk-sGtxnksrHjmWfMA-24" value="" style="edgeStyle=orthogonalEdgeStyle;rounded=0;orthogonalLoop=1;jettySize=auto;html=1;" edge="1" parent="1" source="WMAk-sGtxnksrHjmWfMA-10" target="WMAk-sGtxnksrHjmWfMA-23">
          <mxGeometry relative="1" as="geometry" />
        </mxCell>
        <mxCell id="WMAk-sGtxnksrHjmWfMA-10" value="Partida normal" style="whiteSpace=wrap;html=1;rounded=1;arcSize=5;" vertex="1" parent="1">
          <mxGeometry x="450" y="440" width="120" height="60" as="geometry" />
        </mxCell>
        <mxCell id="WMAk-sGtxnksrHjmWfMA-11" value="Menu inicial" style="whiteSpace=wrap;html=1;rounded=1;arcSize=5;" vertex="1" parent="1">
          <mxGeometry x="365" y="300" width="120" height="60" as="geometry" />
        </mxCell>
        <mxCell id="WMAk-sGtxnksrHjmWfMA-43" value="" style="edgeStyle=orthogonalEdgeStyle;rounded=0;orthogonalLoop=1;jettySize=auto;html=1;" edge="1" parent="1" source="WMAk-sGtxnksrHjmWfMA-12" target="WMAk-sGtxnksrHjmWfMA-42">
          <mxGeometry relative="1" as="geometry" />
        </mxCell>
        <mxCell id="WMAk-sGtxnksrHjmWfMA-12" value="Inici de sessió" style="whiteSpace=wrap;html=1;rounded=1;arcSize=5;" vertex="1" parent="1">
          <mxGeometry x="365" y="90" width="120" height="60" as="geometry" />
        </mxCell>
        <mxCell id="WMAk-sGtxnksrHjmWfMA-15" value="" style="edgeStyle=orthogonalEdgeStyle;rounded=0;orthogonalLoop=1;jettySize=auto;html=1;exitX=0.5;exitY=1;exitDx=0;exitDy=0;entryX=0.5;entryY=0;entryDx=0;entryDy=0;" edge="1" parent="1" source="WMAk-sGtxnksrHjmWfMA-11" target="WMAk-sGtxnksrHjmWfMA-10">
          <mxGeometry relative="1" as="geometry">
            <mxPoint x="435" y="370" as="sourcePoint" />
            <mxPoint x="350" y="450" as="targetPoint" />
          </mxGeometry>
        </mxCell>
        <mxCell id="WMAk-sGtxnksrHjmWfMA-18" value="" style="edgeStyle=orthogonalEdgeStyle;rounded=0;orthogonalLoop=1;jettySize=auto;html=1;" edge="1" parent="1" source="WMAk-sGtxnksrHjmWfMA-16" target="WMAk-sGtxnksrHjmWfMA-17">
          <mxGeometry relative="1" as="geometry" />
        </mxCell>
        <mxCell id="WMAk-sGtxnksrHjmWfMA-16" value="Mode pràctica" style="whiteSpace=wrap;html=1;rounded=1;arcSize=5;" vertex="1" parent="1">
          <mxGeometry x="280" y="440" width="120" height="60" as="geometry" />
        </mxCell>
        <mxCell id="WMAk-sGtxnksrHjmWfMA-21" style="edgeStyle=orthogonalEdgeStyle;rounded=0;orthogonalLoop=1;jettySize=auto;html=1;entryX=0;entryY=0.5;entryDx=0;entryDy=0;" edge="1" parent="1" source="WMAk-sGtxnksrHjmWfMA-17" target="WMAk-sGtxnksrHjmWfMA-11">
          <mxGeometry relative="1" as="geometry">
            <Array as="points">
              <mxPoint x="240" y="600" />
              <mxPoint x="240" y="330" />
            </Array>
          </mxGeometry>
        </mxCell>
        <mxCell id="WMAk-sGtxnksrHjmWfMA-22" value="Si" style="edgeLabel;html=1;align=center;verticalAlign=middle;resizable=0;points=[];" vertex="1" connectable="0" parent="WMAk-sGtxnksrHjmWfMA-21">
          <mxGeometry x="-0.8022" y="1" relative="1" as="geometry">
            <mxPoint x="15" y="-1" as="offset" />
          </mxGeometry>
        </mxCell>
        <mxCell id="WMAk-sGtxnksrHjmWfMA-17" value="&lt;div&gt;Ha disparat al&lt;/div&gt;&lt;div&gt;botó de sortir?&lt;/div&gt;" style="rhombus;whiteSpace=wrap;html=1;rounded=1;arcSize=5;" vertex="1" parent="1">
          <mxGeometry x="287.5" y="560" width="105" height="100" as="geometry" />
        </mxCell>
        <mxCell id="WMAk-sGtxnksrHjmWfMA-19" style="edgeStyle=orthogonalEdgeStyle;rounded=0;orthogonalLoop=1;jettySize=auto;html=1;elbow=vertical;exitX=1;exitY=0;exitDx=0;exitDy=0;entryX=1;entryY=1;entryDx=0;entryDy=0;" edge="1" parent="1" source="WMAk-sGtxnksrHjmWfMA-17" target="WMAk-sGtxnksrHjmWfMA-17">
          <mxGeometry relative="1" as="geometry">
            <Array as="points">
              <mxPoint x="410" y="585" />
              <mxPoint x="410" y="635" />
            </Array>
          </mxGeometry>
        </mxCell>
        <mxCell id="WMAk-sGtxnksrHjmWfMA-20" value="No" style="edgeLabel;html=1;align=center;verticalAlign=middle;resizable=0;points=[];" vertex="1" connectable="0" parent="WMAk-sGtxnksrHjmWfMA-19">
          <mxGeometry x="-0.25" y="3" relative="1" as="geometry">
            <mxPoint x="-13" y="-13" as="offset" />
          </mxGeometry>
        </mxCell>
        <mxCell id="WMAk-sGtxnksrHjmWfMA-25" style="edgeStyle=orthogonalEdgeStyle;rounded=0;orthogonalLoop=1;jettySize=auto;html=1;entryX=1;entryY=0.5;entryDx=0;entryDy=0;exitX=0.5;exitY=0;exitDx=0;exitDy=0;" edge="1" parent="1" source="WMAk-sGtxnksrHjmWfMA-30" target="WMAk-sGtxnksrHjmWfMA-11">
          <mxGeometry relative="1" as="geometry">
            <Array as="points">
              <mxPoint x="840" y="330" />
            </Array>
          </mxGeometry>
        </mxCell>
        <mxCell id="WMAk-sGtxnksrHjmWfMA-26" value="&lt;div&gt;Si&lt;/div&gt;" style="edgeLabel;html=1;align=center;verticalAlign=middle;resizable=0;points=[];" vertex="1" connectable="0" parent="WMAk-sGtxnksrHjmWfMA-25">
          <mxGeometry x="-0.9313" y="4" relative="1" as="geometry">
            <mxPoint x="1" y="-9" as="offset" />
          </mxGeometry>
        </mxCell>
        <mxCell id="WMAk-sGtxnksrHjmWfMA-35" value="" style="edgeStyle=orthogonalEdgeStyle;rounded=0;orthogonalLoop=1;jettySize=auto;html=1;" edge="1" parent="1" source="WMAk-sGtxnksrHjmWfMA-23" target="WMAk-sGtxnksrHjmWfMA-34">
          <mxGeometry relative="1" as="geometry" />
        </mxCell>
        <mxCell id="WMAk-sGtxnksrHjmWfMA-37" value="Si" style="edgeLabel;html=1;align=center;verticalAlign=middle;resizable=0;points=[];" vertex="1" connectable="0" parent="WMAk-sGtxnksrHjmWfMA-35">
          <mxGeometry x="-0.1" y="-3" relative="1" as="geometry">
            <mxPoint x="3" y="-13" as="offset" />
          </mxGeometry>
        </mxCell>
        <mxCell id="WMAk-sGtxnksrHjmWfMA-23" value="S&#39;ha quedat sense vides?" style="rhombus;whiteSpace=wrap;html=1;rounded=1;arcSize=5;" vertex="1" parent="1">
          <mxGeometry x="460" y="560" width="100" height="100" as="geometry" />
        </mxCell>
        <mxCell id="WMAk-sGtxnksrHjmWfMA-27" style="edgeStyle=orthogonalEdgeStyle;rounded=0;orthogonalLoop=1;jettySize=auto;html=1;exitX=0;exitY=0;exitDx=0;exitDy=0;entryX=0;entryY=1;entryDx=0;entryDy=0;" edge="1" parent="1" source="WMAk-sGtxnksrHjmWfMA-23" target="WMAk-sGtxnksrHjmWfMA-23">
          <mxGeometry relative="1" as="geometry">
            <mxPoint x="470" y="640" as="targetPoint" />
            <Array as="points">
              <mxPoint x="450" y="585" />
              <mxPoint x="450" y="635" />
            </Array>
          </mxGeometry>
        </mxCell>
        <mxCell id="WMAk-sGtxnksrHjmWfMA-28" value="No" style="edgeLabel;html=1;align=center;verticalAlign=middle;resizable=0;points=[];" vertex="1" connectable="0" parent="WMAk-sGtxnksrHjmWfMA-27">
          <mxGeometry x="-0.45" y="-2" relative="1" as="geometry">
            <mxPoint x="-6" y="-3" as="offset" />
          </mxGeometry>
        </mxCell>
        <mxCell id="WMAk-sGtxnksrHjmWfMA-30" value="Ha decidit reiniciar?" style="rhombus;whiteSpace=wrap;html=1;rounded=1;arcSize=5;" vertex="1" parent="1">
          <mxGeometry x="800" y="570" width="80" height="80" as="geometry" />
        </mxCell>
        <mxCell id="WMAk-sGtxnksrHjmWfMA-36" value="" style="edgeStyle=orthogonalEdgeStyle;rounded=0;orthogonalLoop=1;jettySize=auto;html=1;" edge="1" parent="1" source="WMAk-sGtxnksrHjmWfMA-34" target="WMAk-sGtxnksrHjmWfMA-30">
          <mxGeometry relative="1" as="geometry" />
        </mxCell>
        <mxCell id="WMAk-sGtxnksrHjmWfMA-34" value="Mostrar missatge de patida acabada" style="whiteSpace=wrap;html=1;rounded=1;arcSize=5;" vertex="1" parent="1">
          <mxGeometry x="620" y="580" width="120" height="60" as="geometry" />
        </mxCell>
        <mxCell id="WMAk-sGtxnksrHjmWfMA-38" style="edgeStyle=orthogonalEdgeStyle;rounded=0;orthogonalLoop=1;jettySize=auto;html=1;entryX=1;entryY=1;entryDx=0;entryDy=0;exitX=1;exitY=0;exitDx=0;exitDy=0;" edge="1" parent="1" source="WMAk-sGtxnksrHjmWfMA-30" target="WMAk-sGtxnksrHjmWfMA-30">
          <mxGeometry relative="1" as="geometry">
            <Array as="points">
              <mxPoint x="910" y="590" />
              <mxPoint x="910" y="630" />
            </Array>
          </mxGeometry>
        </mxCell>
        <mxCell id="WMAk-sGtxnksrHjmWfMA-39" value="&lt;div&gt;No&lt;/div&gt;" style="edgeLabel;html=1;align=center;verticalAlign=middle;resizable=0;points=[];" vertex="1" connectable="0" parent="WMAk-sGtxnksrHjmWfMA-38">
          <mxGeometry x="-0.4286" y="-2" relative="1" as="geometry">
            <mxPoint y="-12" as="offset" />
          </mxGeometry>
        </mxCell>
        <mxCell id="WMAk-sGtxnksrHjmWfMA-44" value="" style="edgeStyle=orthogonalEdgeStyle;rounded=0;orthogonalLoop=1;jettySize=auto;html=1;" edge="1" parent="1" source="WMAk-sGtxnksrHjmWfMA-42" target="WMAk-sGtxnksrHjmWfMA-11">
          <mxGeometry relative="1" as="geometry" />
        </mxCell>
        <mxCell id="WMAk-sGtxnksrHjmWfMA-45" value="&lt;div&gt;Si&lt;/div&gt;" style="edgeLabel;html=1;align=center;verticalAlign=middle;resizable=0;points=[];" vertex="1" connectable="0" parent="WMAk-sGtxnksrHjmWfMA-44">
          <mxGeometry x="-0.4" y="-3" relative="1" as="geometry">
            <mxPoint x="8" as="offset" />
          </mxGeometry>
        </mxCell>
        <mxCell id="WMAk-sGtxnksrHjmWfMA-46" style="edgeStyle=orthogonalEdgeStyle;rounded=0;orthogonalLoop=1;jettySize=auto;html=1;entryX=1;entryY=1;entryDx=0;entryDy=0;exitX=1;exitY=0;exitDx=0;exitDy=0;" edge="1" parent="1" source="WMAk-sGtxnksrHjmWfMA-42" target="WMAk-sGtxnksrHjmWfMA-42">
          <mxGeometry relative="1" as="geometry">
            <mxPoint x="530" y="230" as="targetPoint" />
            <Array as="points">
              <mxPoint x="485" y="200" />
              <mxPoint x="485" y="240" />
            </Array>
          </mxGeometry>
        </mxCell>
        <mxCell id="WMAk-sGtxnksrHjmWfMA-47" value="No" style="edgeLabel;html=1;align=center;verticalAlign=middle;resizable=0;points=[];" vertex="1" connectable="0" parent="WMAk-sGtxnksrHjmWfMA-46">
          <mxGeometry x="-0.2833" y="-2" relative="1" as="geometry">
            <mxPoint x="-3" y="-13" as="offset" />
          </mxGeometry>
        </mxCell>
        <mxCell id="WMAk-sGtxnksrHjmWfMA-42" value="Ha agafat l&#39;arc?" style="rhombus;whiteSpace=wrap;html=1;rounded=1;arcSize=5;" vertex="1" parent="1">
          <mxGeometry x="385" y="180" width="80" height="80" as="geometry" />
        </mxCell>
      </root>
    </mxGraphModel>
  </diagram>
</mxfile>
